<svg width="129" height="30" viewBox="0 0 129 30" fill="none" xmlns="http://www.w3.org/2000/svg">
<path d="M6.99594 17.0156C6.99594 16.5729 6.83969 16.2344 6.52719 16C6.21469 15.7604 5.65219 15.5104 4.83969 15.25C4.02719 14.9844 3.38396 14.724 2.91 14.4688C1.61833 13.7708 0.9725 12.8307 0.9725 11.6484C0.9725 11.0339 1.14437 10.487 1.48812 10.0078C1.83708 9.52344 2.33448 9.14583 2.98031 8.875C3.63135 8.60417 4.36052 8.46875 5.16781 8.46875C5.98031 8.46875 6.70427 8.61719 7.33969 8.91406C7.9751 9.20573 8.46729 9.61979 8.81625 10.1562C9.17042 10.6927 9.3475 11.3021 9.3475 11.9844H7.00375C7.00375 11.4635 6.83969 11.0599 6.51156 10.7734C6.18344 10.4818 5.7225 10.3359 5.12875 10.3359C4.55583 10.3359 4.11052 10.4583 3.79281 10.7031C3.4751 10.9427 3.31625 11.2604 3.31625 11.6562C3.31625 12.026 3.50115 12.3359 3.87094 12.5859C4.24594 12.8359 4.79542 13.0703 5.51937 13.2891C6.85271 13.6901 7.82406 14.1875 8.43344 14.7812C9.04281 15.375 9.3475 16.1146 9.3475 17C9.3475 17.9844 8.9751 18.7578 8.23031 19.3203C7.48552 19.8776 6.48292 20.1562 5.2225 20.1562C4.3475 20.1562 3.55062 19.9974 2.83187 19.6797C2.11312 19.3568 1.56365 18.9167 1.18344 18.3594C0.808437 17.8021 0.620937 17.1562 0.620937 16.4219H2.9725C2.9725 17.6771 3.7225 18.3047 5.2225 18.3047C5.77979 18.3047 6.21469 18.1927 6.52719 17.9688C6.83969 17.7396 6.99594 17.4219 6.99594 17.0156ZM16.8153 19.1406C16.258 19.8177 15.4872 20.1562 14.5028 20.1562C13.5966 20.1562 12.9039 19.8958 12.4247 19.375C11.9507 18.8542 11.7085 18.0911 11.6981 17.0859V11.5469H13.9559V17.0078C13.9559 17.888 14.357 18.3281 15.1591 18.3281C15.9247 18.3281 16.4507 18.0625 16.7372 17.5312V11.5469H19.0028V20H16.8778L16.8153 19.1406ZM29.2831 15.8516C29.2831 17.2057 28.9941 18.263 28.4159 19.0234C27.8378 19.7786 27.0305 20.1562 25.9941 20.1562C25.0774 20.1562 24.3456 19.8047 23.7987 19.1016L23.6972 20H21.6659V8H23.9237V12.3047C24.4446 11.6953 25.1295 11.3906 25.9784 11.3906C27.0097 11.3906 27.817 11.7708 28.4003 12.5312C28.9889 13.2865 29.2831 14.3516 29.2831 15.7266V15.8516ZM27.0253 15.6875C27.0253 14.8333 26.8899 14.2109 26.6191 13.8203C26.3482 13.4245 25.9446 13.2266 25.4081 13.2266C24.6894 13.2266 24.1946 13.5208 23.9237 14.1094V17.4453C24.1998 18.0391 24.6998 18.3359 25.4237 18.3359C26.1529 18.3359 26.6321 17.9766 26.8612 17.2578C26.9706 16.9141 27.0253 16.3906 27.0253 15.6875ZM36.2197 17.6641C36.2197 17.388 36.0817 17.1719 35.8056 17.0156C35.5348 16.8542 35.0973 16.7109 34.4931 16.5859C32.4827 16.1641 31.4775 15.3099 31.4775 14.0234C31.4775 13.2734 31.7874 12.6484 32.4072 12.1484C33.0322 11.6432 33.8473 11.3906 34.8525 11.3906C35.9254 11.3906 36.7822 11.6432 37.4228 12.1484C38.0686 12.6536 38.3916 13.3099 38.3916 14.1172H36.1337C36.1337 13.7943 36.0296 13.5286 35.8212 13.3203C35.6129 13.1068 35.2874 13 34.8447 13C34.4645 13 34.1702 13.0859 33.9619 13.2578C33.7535 13.4297 33.6494 13.6484 33.6494 13.9141C33.6494 14.1641 33.7666 14.3672 34.0009 14.5234C34.2405 14.6745 34.6416 14.8073 35.2041 14.9219C35.7666 15.0312 36.2405 15.1562 36.6259 15.2969C37.8186 15.7344 38.415 16.4922 38.415 17.5703C38.415 18.3411 38.0843 18.9661 37.4228 19.4453C36.7614 19.9193 35.9072 20.1562 34.8603 20.1562C34.152 20.1562 33.5218 20.0312 32.9697 19.7812C32.4228 19.526 31.9931 19.1797 31.6806 18.7422C31.3681 18.2995 31.2119 17.8229 31.2119 17.3125H33.3525C33.3733 17.7135 33.5218 18.0208 33.7978 18.2344C34.0739 18.4479 34.4436 18.5547 34.9072 18.5547C35.3395 18.5547 35.665 18.474 35.8837 18.3125C36.1077 18.1458 36.2197 17.9297 36.2197 17.6641ZM44.3516 18.3359C44.7682 18.3359 45.1068 18.2214 45.3672 17.9922C45.6276 17.763 45.763 17.4583 45.7734 17.0781H47.8906C47.8854 17.651 47.7292 18.1771 47.4219 18.6562C47.1146 19.1302 46.6927 19.5 46.1562 19.7656C45.625 20.026 45.0365 20.1562 44.3906 20.1562C43.1823 20.1562 42.2292 19.7734 41.5312 19.0078C40.8333 18.237 40.4844 17.1745 40.4844 15.8203V15.6719C40.4844 14.3698 40.8307 13.3307 41.5234 12.5547C42.2161 11.7786 43.1667 11.3906 44.375 11.3906C45.4323 11.3906 46.2786 11.6927 46.9141 12.2969C47.5547 12.8958 47.8802 13.6953 47.8906 14.6953H45.7734C45.763 14.2578 45.6276 13.9036 45.3672 13.6328C45.1068 13.3568 44.763 13.2188 44.3359 13.2188C43.8099 13.2188 43.4115 13.4115 43.1406 13.7969C42.875 14.1771 42.7422 14.7969 42.7422 15.6562V15.8906C42.7422 16.7604 42.875 17.3854 43.1406 17.7656C43.4062 18.1458 43.8099 18.3359 44.3516 18.3359ZM54.8897 13.6641C54.5824 13.6224 54.3116 13.6016 54.0772 13.6016C53.223 13.6016 52.6631 13.8906 52.3975 14.4688V20H50.1397V11.5469H52.2725L52.335 12.5547C52.7881 11.7786 53.4157 11.3906 54.2178 11.3906C54.4678 11.3906 54.7022 11.4245 54.9209 11.4922L54.8897 13.6641ZM59.3262 20H57.0606V11.5469H59.3262V20ZM56.9278 9.35938C56.9278 9.02083 57.0398 8.74219 57.2637 8.52344C57.4929 8.30469 57.8028 8.19531 58.1934 8.19531C58.5789 8.19531 58.8861 8.30469 59.1153 8.52344C59.3445 8.74219 59.4591 9.02083 59.4591 9.35938C59.4591 9.70312 59.3419 9.98438 59.1075 10.2031C58.8783 10.4219 58.5736 10.5312 58.1934 10.5312C57.8132 10.5312 57.5059 10.4219 57.2716 10.2031C57.0424 9.98438 56.9278 9.70312 56.9278 9.35938ZM69.7706 15.8516C69.7706 17.2057 69.4816 18.263 68.9034 19.0234C68.3253 19.7786 67.518 20.1562 66.4816 20.1562C65.5649 20.1562 64.8331 19.8047 64.2863 19.1016L64.1847 20H62.1534V8H64.4113V12.3047C64.9321 11.6953 65.617 11.3906 66.4659 11.3906C67.4972 11.3906 68.3045 11.7708 68.8878 12.5312C69.4764 13.2865 69.7706 14.3516 69.7706 15.7266V15.8516ZM67.5128 15.6875C67.5128 14.8333 67.3774 14.2109 67.1066 13.8203C66.8357 13.4245 66.4321 13.2266 65.8956 13.2266C65.1769 13.2266 64.6821 13.5208 64.4113 14.1094V17.4453C64.6873 18.0391 65.1873 18.3359 65.9113 18.3359C66.6404 18.3359 67.1196 17.9766 67.3488 17.2578C67.4581 16.9141 67.5128 16.3906 67.5128 15.6875ZM76.0197 20.1562C74.7801 20.1562 73.7697 19.776 72.9884 19.0156C72.2124 18.2552 71.8244 17.2422 71.8244 15.9766V15.7578C71.8244 14.9089 71.9884 14.151 72.3166 13.4844C72.6447 12.8125 73.1082 12.2969 73.7072 11.9375C74.3114 11.5729 74.9989 11.3906 75.7697 11.3906C76.9259 11.3906 77.8348 11.7552 78.4962 12.4844C79.1629 13.2135 79.4962 14.2474 79.4962 15.5859V16.5078H74.1134C74.1864 17.0599 74.4051 17.5026 74.7697 17.8359C75.1395 18.1693 75.6056 18.3359 76.1681 18.3359C77.0379 18.3359 77.7176 18.0208 78.2072 17.3906L79.3166 18.6328C78.978 19.112 78.5197 19.487 77.9416 19.7578C77.3634 20.0234 76.7228 20.1562 76.0197 20.1562ZM75.7619 13.2188C75.314 13.2188 74.9494 13.3698 74.6681 13.6719C74.3921 13.974 74.215 14.4062 74.1369 14.9688H77.2775V14.7891C77.2671 14.2891 77.1317 13.9036 76.8712 13.6328C76.6108 13.3568 76.241 13.2188 75.7619 13.2188Z" fill="white"/>
<path d="M129 3L105 16.5L112.67 19.3407L124.5 8.25L115.502 20.3895L115.509 20.3923L115.5 20.3895V27L119.801 21.9819L125.25 24L129 3Z" fill="white"/>
</svg>
